<?xml version="1.0" encoding="UTF-8"?>
<svg id="Layer_2" data-name="Layer 2" xmlns="http://www.w3.org/2000/svg" viewBox="0 0 700 291.75">
  <defs>
    <style>
      .cls-1 {
        fill: none;
      }

      .cls-2 {
        fill: #92cd00;
      }
    </style>
  </defs>
  <g id="Layer_1-2" data-name="Layer 1">
    <g>
      <rect class="cls-1" width="700" height="291.75"/>
      <g>
        <g>
          <path class="cls-2" d="M343.32,140.77h-13.33c-.6,0-1.1-.21-1.52-.62-.42-.41-.63-.92-.63-1.51v-60.89c0-.59.21-1.1.62-1.51.41-.41.92-.62,1.51-.62h27.69c3.44,0,6.62.58,9.53,1.74,2.91,1.16,5.39,2.78,7.43,4.85,2.05,2.08,3.65,4.54,4.81,7.39,1.16,2.85,1.74,6,1.74,9.44,0,1.9-.22,3.78-.67,5.65-.45,1.87-1.08,3.64-1.91,5.3-.83,1.66-1.81,3.16-2.94,4.49-1.13,1.34-2.4,2.45-3.83,3.34-.48.36-.79.79-.94,1.29-.15.51-.04,1,.31,1.47,2.25,2.97,4.63,6.02,7.12,9.17,2.49,3.15,4.72,6.02,6.68,8.64.36.48.45,1,.27,1.56-.18.56-.56.85-1.16.85h-16.56c-.59,0-1.23-.16-1.91-.49-.68-.32-1.2-.73-1.56-1.2-1.89-2.49-3.77-5.01-5.63-7.57-1.86-2.55-3.71-5.13-5.54-7.75-.35-.47-.86-.87-1.51-1.2-.65-.33-1.27-.49-1.86-.49h-1.95c-.59,0-1.09.21-1.51.62-.42.42-.62.92-.62,1.51v14.42c0,.59-.21,1.1-.63,1.51-.42.42-.93.62-1.52.62ZM347.59,105.69h9.39c.71,0,1.45-.13,2.21-.4s1.48-.68,2.13-1.25c.65-.56,1.18-1.26,1.6-2.09.41-.83.62-1.81.62-2.94,0-.59-.1-1.29-.31-2.09-.21-.8-.56-1.57-1.06-2.31-.5-.74-1.18-1.36-2.04-1.87-.86-.5-1.9-.76-3.15-.76h-9.39c-.59,0-1.09.21-1.5.62-.42.42-.62.92-.62,1.51v9.44c0,.59.21,1.1.62,1.51.41.42.91.62,1.5.62Z"/>
          <path class="cls-2" d="M409.39,94.12v3.74c0,.59.21,1.1.62,1.51.41.42.92.62,1.51.62h24.13c.59,0,1.1.21,1.51.62.41.42.62.92.62,1.51v12.29c0,.59-.21,1.1-.62,1.51s-.92.62-1.51.62h-24.13c-.59,0-1.1.21-1.51.62-.42.42-.62.92-.62,1.51v3.38c0,.59.21,1.1.62,1.51.41.42.92.62,1.51.62h27.69c.59,0,1.1.21,1.51.62.41.42.62.92.62,1.51v12.28c0,.59-.21,1.1-.62,1.51s-.92.62-1.51.62h-45.31c-.59,0-1.1-.21-1.51-.62-.42-.41-.62-.92-.62-1.51v-60.89c0-.59.21-1.1.62-1.51s.92-.62,1.51-.62h45.31c.59,0,1.1.21,1.51.62.41.42.62.92.62,1.51v12.11c0,.59-.21,1.1-.62,1.51-.42.42-.92.62-1.51.62h-27.69c-.59,0-1.1.21-1.51.62-.42.42-.62.92-.62,1.51Z"/>
          <path class="cls-2" d="M470.19,94.12v3.74c0,.59.21,1.1.62,1.51.41.42.92.62,1.51.62h24.13c.59,0,1.1.21,1.51.62.41.42.62.92.62,1.51v12.29c0,.59-.21,1.1-.62,1.51s-.92.62-1.51.62h-24.13c-.59,0-1.1.21-1.51.62s-.62.92-.62,1.51v3.38c0,.59.21,1.1.62,1.51.41.42.92.62,1.51.62h27.69c.59,0,1.1.21,1.51.62.41.42.62.92.62,1.51v12.28c0,.59-.21,1.1-.62,1.51s-.92.62-1.51.62h-45.31c-.59,0-1.1-.21-1.51-.62-.42-.41-.62-.92-.62-1.51v-60.89c0-.59.21-1.1.62-1.51s.92-.62,1.51-.62h45.31c.59,0,1.1.21,1.51.62.41.42.62.92.62,1.51v12.11c0,.59-.21,1.1-.62,1.51-.42.42-.92.62-1.51.62h-27.69c-.59,0-1.1.21-1.51.62s-.62.92-.62,1.51Z"/>
          <path class="cls-2" d="M574.71,77.74v60.89c0,.59-.21,1.1-.62,1.51s-.92.62-1.51.62h-13.15c-.59,0-1.22-.18-1.87-.53-.65-.36-1.15-.77-1.51-1.25l-23.19-32.67c-.36-.47-.73-.67-1.11-.58-.38.09-.58.43-.58,1.02v31.87c0,.59-.21,1.1-.63,1.51-.42.42-.92.62-1.52.62h-13.33c-.6,0-1.1-.21-1.52-.62-.42-.41-.63-.92-.63-1.51v-60.89c0-.59.21-1.1.62-1.51s.92-.62,1.51-.62h13.35c.59,0,1.22.16,1.87.49.65.33,1.16.73,1.51,1.2l23.15,32.67c.36.48.73.68,1.11.62.38-.06.58-.38.58-.98v-31.87c0-.59.21-1.1.62-1.51s.92-.62,1.51-.62h13.17c.59,0,1.1.21,1.51.62.41.42.62.92.62,1.51Z"/>
          <path class="cls-2" d="M262.23,193.95c3.2,2.08,6.38,3.71,9.53,4.9,3.14,1.19,6.08,1.78,8.81,1.78s4.6-.37,5.96-1.11c1.36-.74,2.05-1.85,2.05-3.34,0-.77-.3-1.38-.89-1.83-.59-.45-1.38-.81-2.36-1.11-.98-.3-2.12-.53-3.43-.71-1.31-.18-2.64-.41-4.01-.71-1.31-.24-2.83-.52-4.58-.85-1.75-.33-3.55-.8-5.39-1.43-1.84-.62-3.67-1.41-5.48-2.36-1.81-.95-3.43-2.17-4.85-3.65-1.42-1.48-2.57-3.25-3.43-5.3-.86-2.05-1.29-4.47-1.29-7.26,0-4.1.8-7.48,2.4-10.15,1.6-2.67,3.63-4.79,6.1-6.36,2.46-1.57,5.21-2.67,8.23-3.29,3.03-.62,5.96-.94,8.81-.94,4.99,0,9.45.73,13.4,2.18,3.95,1.46,7.73,3.58,11.35,6.37.47.42.74.92.8,1.51.06.59-.09,1.13-.45,1.6l-6.94,9.88c-.36.48-.83.77-1.42.89-.59.12-1.13,0-1.6-.36-3.03-1.9-5.85-3.25-8.46-4.05-2.61-.8-5.02-1.2-7.21-1.2-.65,0-1.41.02-2.27.04-.86.03-1.68.15-2.45.36-.77.21-1.41.55-1.91,1.02-.5.48-.76,1.13-.76,1.96s.62,1.57,1.87,2.23c1.25.65,2.67,1.22,4.27,1.69,1.6.48,3.15.85,4.63,1.11,1.48.27,2.43.43,2.85.49,2.14.42,4.48,1.02,7.03,1.83,2.55.8,4.94,1.99,7.17,3.56,2.23,1.57,4.1,3.62,5.61,6.14,1.51,2.52,2.27,5.68,2.27,9.48,0,3.56-.62,6.63-1.87,9.21-1.25,2.58-2.98,4.7-5.21,6.36-2.23,1.66-4.9,2.89-8.01,3.69-3.12.8-6.57,1.2-10.37,1.2-3.09,0-5.96-.25-8.64-.76-2.67-.5-5.16-1.2-7.48-2.09-2.31-.89-4.47-1.94-6.45-3.16-1.99-1.22-3.81-2.51-5.48-3.87-.48-.36-.74-.85-.8-1.47-.06-.62.09-1.17.45-1.65l6.85-9.88c.36-.47.83-.77,1.42-.89.59-.12,1.13-.03,1.6.27Z"/>
          <path class="cls-2" d="M380.54,201.7v12.55c0,.59-.21,1.1-.62,1.51-.42.42-.92.62-1.51.62h-30.71c-6,0-11.19-.87-15.58-2.63-4.39-1.75-8.03-4.12-10.91-7.12-2.88-3-5.02-6.5-6.41-10.51-1.39-4.01-2.09-8.29-2.09-12.86s.86-8.87,2.58-12.91c1.72-4.04,4.08-7.55,7.08-10.55,3-3,6.5-5.37,10.5-7.12,4.01-1.75,8.29-2.63,12.86-2.63s8.87.88,12.91,2.63c4.04,1.75,7.55,4.13,10.55,7.12,3,3,5.36,6.51,7.08,10.55,1.72,4.04,2.58,8.34,2.58,12.91,0,2.85-.5,5.56-1.51,8.15-1.01,2.58-2.29,4.76-3.83,6.54-.77,1.07-.53,1.6.71,1.6h4.18c.59,0,1.1.21,1.51.62.41.42.62.92.62,1.51ZM345.78,199.03c2.13,0,4.13-.43,5.99-1.29,1.86-.86,3.51-2,4.93-3.43,1.42-1.42,2.53-3.09,3.33-4.98.8-1.9,1.2-3.92,1.2-6.05s-.4-4.17-1.2-6.1c-.8-1.93-1.91-3.62-3.33-5.07-1.42-1.45-3.06-2.6-4.93-3.43-1.86-.83-3.86-1.25-5.99-1.25s-4.13.42-5.99,1.25c-1.86.83-3.51,1.97-4.93,3.43-1.42,1.46-2.53,3.15-3.33,5.07-.8,1.93-1.2,3.96-1.2,6.1s.4,4.16,1.2,6.05c.8,1.9,1.91,3.56,3.33,4.98,1.42,1.43,3.06,2.57,4.93,3.43,1.86.86,3.86,1.29,5.99,1.29Z"/>
          <path class="cls-2" d="M389,153.36c0-.59.21-1.1.62-1.51.41-.41.91-.62,1.51-.62h13.38c.59,0,1.09.21,1.51.62.41.42.62.92.62,1.51v36.05c0,2.32.37,4.23,1.12,5.74.75,1.51,1.67,2.7,2.77,3.56,1.1.86,2.28,1.47,3.53,1.83,1.25.36,2.38.53,3.4.53s2.15-.18,3.4-.53c1.25-.36,2.41-.96,3.49-1.83,1.07-.86,1.98-2.05,2.73-3.56.75-1.51,1.12-3.43,1.12-5.74v-36.05c0-.59.21-1.1.62-1.51.41-.41.91-.62,1.51-.62h13.38c.59,0,1.09.21,1.5.62.41.42.62.92.62,1.51v36.05c0,4.21-.67,8.04-2,11.48-1.33,3.44-3.24,6.38-5.73,8.81-2.49,2.43-5.48,4.32-8.98,5.65-3.5,1.34-7.38,2-11.64,2s-8.15-.67-11.64-2c-3.5-1.34-6.49-3.22-8.98-5.65-2.49-2.43-4.42-5.37-5.78-8.81-1.36-3.44-2.04-7.27-2.04-11.48v-36.05Z"/>
          <path class="cls-2" d="M474.2,153.18c.24-.53.64-.99,1.2-1.38.56-.38,1.17-.58,1.83-.58h12.46c.59,0,1.17.19,1.74.58.56.39.96.85,1.2,1.38l26,60.54c.24.53.19,1.1-.13,1.69-.33.59-.97.89-1.91.89h-15.22c-.65,0-1.26-.19-1.83-.58-.56-.38-.99-.85-1.29-1.38l-2.4-5.34c-.3-.53-.73-.99-1.29-1.38-.56-.38-1.14-.58-1.74-.58h-18.78c-.65,0-1.26.19-1.83.58-.56.39-.96.85-1.2,1.38l-2.49,5.34c-.24.53-.64,1-1.2,1.38-.56.39-1.14.58-1.74.58h-15.31c-.3,0-.61-.06-.93-.18-.33-.12-.59-.3-.8-.53-.21-.24-.34-.53-.4-.89-.06-.36.03-.77.27-1.25l25.82-60.27ZM479.45,191.91h7.92c.59,0,1.02-.19,1.29-.58.27-.38.25-.85-.04-1.38-.59-1.48-1.31-3.22-2.14-5.21s-1.6-3.84-2.31-5.56c-.24-.53-.51-.8-.8-.8s-.56.27-.8.8l-4.45,10.77c-.24.53-.24.99,0,1.38.24.39.68.58,1.34.58Z"/>
          <path class="cls-2" d="M536.95,216.3h-13.33c-.6,0-1.1-.21-1.52-.62-.42-.41-.63-.92-.63-1.51v-60.89c0-.59.21-1.1.62-1.51s.92-.62,1.51-.62h27.69c3.44,0,6.62.58,9.53,1.74,2.91,1.16,5.39,2.78,7.43,4.85,2.05,2.08,3.65,4.54,4.81,7.39s1.74,6,1.74,9.44c0,1.9-.22,3.78-.67,5.65-.45,1.87-1.08,3.64-1.91,5.3-.83,1.66-1.81,3.16-2.94,4.49-1.13,1.34-2.4,2.45-3.83,3.34-.48.36-.79.79-.93,1.29-.15.51-.04,1,.31,1.47,2.26,2.97,4.63,6.02,7.12,9.17,2.49,3.15,4.72,6.02,6.68,8.64.36.48.45,1,.27,1.56-.18.56-.56.85-1.16.85h-16.56c-.59,0-1.23-.16-1.91-.49-.68-.32-1.2-.73-1.56-1.2-1.89-2.49-3.77-5.01-5.63-7.57-1.86-2.55-3.71-5.13-5.54-7.75-.36-.47-.86-.87-1.51-1.2-.65-.33-1.27-.49-1.86-.49h-1.95c-.59,0-1.09.21-1.51.62-.41.42-.62.92-.62,1.51v14.42c0,.59-.21,1.1-.63,1.51-.42.42-.92.62-1.52.62ZM541.22,181.22h9.39c.71,0,1.45-.13,2.21-.4s1.48-.68,2.13-1.25c.65-.56,1.18-1.26,1.6-2.09.41-.83.62-1.81.62-2.94,0-.59-.1-1.29-.31-2.09-.21-.8-.56-1.57-1.06-2.31-.5-.74-1.18-1.36-2.04-1.87-.86-.5-1.9-.76-3.15-.76h-9.39c-.59,0-1.09.21-1.5.62-.41.42-.62.92-.62,1.51v9.44c0,.59.21,1.1.62,1.51.41.42.92.62,1.5.62Z"/>
          <path class="cls-2" d="M603.01,169.65v3.74c0,.59.21,1.1.62,1.51.41.42.92.62,1.51.62h24.13c.59,0,1.1.21,1.51.62.41.42.62.92.62,1.51v12.29c0,.59-.21,1.1-.62,1.51s-.92.62-1.51.62h-24.13c-.59,0-1.1.21-1.51.62s-.62.92-.62,1.51v3.38c0,.59.21,1.1.62,1.51.41.42.92.62,1.51.62h27.69c.59,0,1.1.21,1.51.62.41.42.62.92.62,1.51v12.28c0,.59-.21,1.1-.62,1.51s-.92.62-1.51.62h-45.31c-.59,0-1.1-.21-1.51-.62-.42-.41-.62-.92-.62-1.51v-60.89c0-.59.21-1.1.62-1.51s.92-.62,1.51-.62h45.31c.59,0,1.1.21,1.51.62.41.42.62.92.62,1.51v12.11c0,.59-.21,1.1-.62,1.51-.42.42-.92.62-1.51.62h-27.69c-.59,0-1.1.21-1.51.62s-.62.92-.62,1.51Z"/>
        </g>
        <path class="cls-2" d="M225.56,65.03H75.28c-3.09,0-5.6,2.51-5.6,5.6v150.28c0,3.09,2.51,5.6,5.6,5.6h150.28c3.09,0,5.6-2.51,5.6-5.6V70.63c0-3.09-2.51-5.6-5.6-5.6ZM210.84,126.59c0,1.86-1.5,3.36-3.36,3.36h-54.97c-15.35,0-27.8,12.45-27.8,27.8h0c0,15.35,12.45,27.8,27.8,27.8h23.35v-20.67h-20.4c0-8.14,6.6-14.75,14.75-14.75h20.4v43.98h0v2.82c0,1.86-1.5,3.36-3.36,3.36h-73.94c-1.86,0-3.36-1.5-3.36-3.36v-67.2h-16.57c-1.86,0-3.36-1.5-3.36-3.36v-22.61c0-1.54,1.05-2.89,2.55-3.26l37.29-9.27c.04,11.33,9.23,20.51,20.57,20.51s20.52-9.16,20.57-20.48l37.3,9.37c1.49.38,2.54,1.72,2.54,3.26v22.69Z"/>
        <path class="cls-2" d="M300.93,101.28c-8.89,0-16.09,7.21-16.09,16.09h0s16.48,0,16.48,0v7.24h-15.95c-8.83,0-16.45-6.77-16.88-15.59-.47-9.43,7.07-17.24,16.4-17.24h30.27c1.24,0,2.24-1,2.24-2.24v-11.62c0-1.24-1-2.24-2.24-2.24h-29.58c-17.69,0-32.66,13.84-33.19,31.53-.55,18.38,14.24,33.5,32.5,33.5h30.27c1.24,0,2.24-1,2.24-2.24v-34.96c0-1.24-1-2.24-2.24-2.24l-14.23.02Z"/>
      </g>
    </g>
  </g>
</svg>